<?xml version="1.0" encoding="UTF-8"?>
<svg width="400" height="300" viewBox="0 0 400 300" fill="none" xmlns="http://www.w3.org/2000/svg">
    <!-- Background Elements -->
    <circle cx="200" cy="150" r="120" fill="url(#gradient-bg)" opacity="0.1"/>
    <circle cx="200" cy="150" r="100" stroke="url(#gradient-border)" stroke-width="2" opacity="0.2"/>
    
    <!-- Main Robot Character -->
    <g transform="translate(150, 100)">
        <!-- Robot Head -->
        <rect x="0" y="0" width="100" height="80" rx="20" fill="url(#gradient-robot)" stroke="url(#gradient-border)" stroke-width="2"/>
        <circle cx="30" cy="30" r="8" fill="#4FACFE"/>
        <circle cx="70" cy="30" r="8" fill="#4FACFE"/>
        <path d="M30 60 Q50 70 70 60" stroke="#4FACFE" stroke-width="3" fill="none"/>
        
        <!-- Robot Antenna -->
        <line x1="50" y1="0" x2="50" y2="-20" stroke="url(#gradient-border)" stroke-width="2"/>
        <circle cx="50" cy="-20" r="5" fill="#4FACFE"/>
        
        <!-- Robot Body -->
        <rect x="20" y="80" width="60" height="40" rx="10" fill="url(#gradient-robot)" stroke="url(#gradient-border)" stroke-width="2"/>
        <rect x="35" y="90" width="30" height="20" rx="5" fill="#4FACFE" opacity="0.5"/>
        
        <!-- Robot Arms -->
        <line x1="20" y1="90" x2="0" y2="70" stroke="url(#gradient-border)" stroke-width="2"/>
        <line x1="80" y1="90" x2="100" y2="70" stroke="url(#gradient-border)" stroke-width="2"/>
        
        <!-- Robot Legs -->
        <line x1="35" y1="120" x2="35" y2="140" stroke="url(#gradient-border)" stroke-width="2"/>
        <line x1="65" y1="120" x2="65" y2="140" stroke="url(#gradient-border)" stroke-width="2"/>
    </g>
    
    <!-- Floating Elements -->
    <g transform="translate(50, 50)">
        <circle cx="0" cy="0" r="10" fill="#4FACFE" opacity="0.5"/>
        <circle cx="300" cy="200" r="15" fill="#4FACFE" opacity="0.3"/>
        <circle cx="250" cy="50" r="8" fill="#4FACFE" opacity="0.4"/>
    </g>
    
    <!-- Gradients -->
    <defs>
        <linearGradient id="gradient-bg" x1="0" y1="0" x2="400" y2="300">
            <stop offset="0%" stop-color="#4FACFE"/>
            <stop offset="100%" stop-color="#00F2FE"/>
        </linearGradient>
        <linearGradient id="gradient-border" x1="0" y1="0" x2="400" y2="300">
            <stop offset="0%" stop-color="#4FACFE"/>
            <stop offset="100%" stop-color="#00F2FE"/>
        </linearGradient>
        <linearGradient id="gradient-robot" x1="0" y1="0" x2="100" y2="100">
            <stop offset="0%" stop-color="#4FACFE" stop-opacity="0.1"/>
            <stop offset="100%" stop-color="#00F2FE" stop-opacity="0.2"/>
        </linearGradient>
    </defs>
</svg> 